<svg id="visual" viewBox="0 0 900 600" width="900" height="600" xmlns="http://www.w3.org/2000/svg" xmlns:xlink="http://www.w3.org/1999/xlink" version="1.1"><rect x="0" y="0" width="900" height="600" fill="#F7F7FF"></rect><path d="M0 392L21.5 394.3C43 396.7 86 401.3 128.8 409.7C171.7 418 214.3 430 257.2 422.3C300 414.7 343 387.3 385.8 380.7C428.7 374 471.3 388 514.2 401.8C557 415.7 600 429.3 642.8 431.5C685.7 433.7 728.3 424.3 771.2 424.7C814 425 857 435 878.5 440L900 445L900 601L878.5 601C857 601 814 601 771.2 601C728.3 601 685.7 601 642.8 601C600 601 557 601 514.2 601C471.3 601 428.7 601 385.8 601C343 601 300 601 257.2 601C214.3 601 171.7 601 128.8 601C86 601 43 601 21.5 601L0 601Z" fill="#0066ff"></path><path d="M0 441L21.5 434.5C43 428 86 415 128.8 407.7C171.7 400.3 214.3 398.7 257.2 399.7C300 400.7 343 404.3 385.8 410.5C428.7 416.7 471.3 425.3 514.2 435.8C557 446.3 600 458.7 642.8 457.2C685.7 455.7 728.3 440.3 771.2 428.2C814 416 857 407 878.5 402.5L900 398L900 601L878.5 601C857 601 814 601 771.2 601C728.3 601 685.7 601 642.8 601C600 601 557 601 514.2 601C471.3 601 428.7 601 385.8 601C343 601 300 601 257.2 601C214.3 601 171.7 601 128.8 601C86 601 43 601 21.5 601L0 601Z" fill="#007aff"></path><path d="M0 467L21.5 466.7C43 466.3 86 465.7 128.8 469.8C171.7 474 214.3 483 257.2 483.7C300 484.3 343 476.7 385.8 473.7C428.7 470.7 471.3 472.3 514.2 470.2C557 468 600 462 642.8 457.2C685.7 452.3 728.3 448.7 771.2 452.8C814 457 857 469 878.5 475L900 481L900 601L878.5 601C857 601 814 601 771.2 601C728.3 601 685.7 601 642.8 601C600 601 557 601 514.2 601C471.3 601 428.7 601 385.8 601C343 601 300 601 257.2 601C214.3 601 171.7 601 128.8 601C86 601 43 601 21.5 601L0 601Z" fill="#008cff"></path><path d="M0 482L21.5 486C43 490 86 498 128.8 498.8C171.7 499.7 214.3 493.3 257.2 499C300 504.7 343 522.3 385.8 529.5C428.7 536.7 471.3 533.3 514.2 531C557 528.7 600 527.3 642.8 528.7C685.7 530 728.3 534 771.2 527.7C814 521.3 857 504.7 878.5 496.3L900 488L900 601L878.5 601C857 601 814 601 771.2 601C728.3 601 685.7 601 642.8 601C600 601 557 601 514.2 601C471.3 601 428.7 601 385.8 601C343 601 300 601 257.2 601C214.3 601 171.7 601 128.8 601C86 601 43 601 21.5 601L0 601Z" fill="#2b9dfc"></path><path d="M0 566L21.5 559.8C43 553.7 86 541.3 128.8 542.2C171.7 543 214.3 557 257.2 558.3C300 559.7 343 548.3 385.8 547.5C428.7 546.7 471.3 556.3 514.2 557.5C557 558.7 600 551.3 642.8 551.5C685.7 551.7 728.3 559.3 771.2 558.2C814 557 857 547 878.5 542L900 537L900 601L878.5 601C857 601 814 601 771.2 601C728.3 601 685.7 601 642.8 601C600 601 557 601 514.2 601C471.3 601 428.7 601 385.8 601C343 601 300 601 257.2 601C214.3 601 171.7 601 128.8 601C86 601 43 601 21.5 601L0 601Z" fill="#4facf7"></path></svg>